<!DOCTYPE svg PUBLIC "-//W3C//DTD SVG 20010904//EN" "http://www.w3.org/TR/2001/REC-SVG-20010904/DTD/svg10.dtd">
<svg version="1.0" xmlns="http://www.w3.org/2000/svg" width="488px" height="480px" viewBox="0 0 4880 4800" preserveAspectRatio="xMidYMid meet">
<g id="layer1" fill="#ffffff" stroke="none">
 <path d="M4130 4707 c-245 -156 -224 -139 -440 -350 -86 -84 -252 -244 -369 -357 l-214 -205 -63 -129 c-61 -123 -75 -166 -55 -166 6 0 38 22 73 48 291 222 393 244 497 105 63 -84 150 -260 194 -393 92 -275 110 -579 51 -868 -21 -104 -79 -277 -106 -314 -30 -43 -75 -60 -124 -47 -53 15 -244 107 -327 157 -69 43 -107 53 -107 28 0 -8 47 -70 104 -138 l104 -123 264 -165 c452 -282 820 -510 825 -510 35 0 -117 230 -222 336 -33 33 -106 99 -162 147 -108 92 -140 127 -149 162 -3 13 17 84 49 176 88 249 102 336 102 634 0 221 -3 263 -23 359 -55 263 -149 487 -295 705 -89 133 -86 169 30 318 85 109 290 358 339 413 109 120 214 247 214 258 0 29 -54 6 -190 -81z"/>
 <path d="M864 4165 c-4 -8 66 -139 162 -307 180 -314 199 -345 266 -417 24 -25 86 -93 138 -151 52 -58 97 -107 100 -110 11 -11 198 -217 225 -247 15 -18 32 -33 36 -33 5 0 21 24 35 53 39 75 69 112 123 146 222 143 506 62 626 -177 14 -27 30 -84 37 -126 22 -140 -22 -267 -128 -372 -71 -70 -170 -118 -270 -129 -109 -13 -243 37 -333 122 -40 39 -43 45 -38 80 4 20 21 57 38 81 38 53 29 66 -44 57 -61 -7 -154 10 -224 41 -91 40 -91 41 -95 -83 -3 -95 -6 -115 -32 -168 -17 -33 -33 -67 -37 -76 -7 -15 1 -16 74 -12 l82 4 87 -85 c152 -148 322 -214 523 -202 109 6 177 21 242 54 23 12 48 22 55 22 7 0 60 -44 118 -97 58 -53 132 -121 166 -152 33 -31 81 -74 105 -96 49 -44 245 -224 324 -296 27 -25 160 -147 295 -270 135 -123 265 -242 289 -264 24 -22 49 -44 55 -50 6 -5 63 -57 126 -115 63 -58 137 -125 164 -150 27 -25 62 -56 77 -70 15 -14 47 -43 70 -65 24 -22 116 -105 204 -185 88 -80 185 -168 215 -196 100 -93 137 -124 149 -124 26 0 6 49 -73 173 -46 73 -120 192 -166 265 -64 104 -109 161 -203 260 -365 384 -635 668 -662 697 -21 23 -149 157 -339 355 -61 63 -183 192 -271 285 -88 93 -203 214 -255 268 -52 54 -96 106 -98 116 -2 10 9 53 25 97 24 70 27 93 28 209 0 146 -15 218 -66 319 -76 150 -225 281 -383 337 -158 55 -378 44 -517 -27 -27 -13 -56 -24 -65 -24 -14 0 -104 78 -289 251 -33 31 -73 69 -90 84 -165 151 -228 208 -349 320 -77 72 -156 145 -174 163 -38 35 -50 39 -58 17z"/>
 <path d="M640 3779 c0 -36 75 -299 97 -344 9 -16 34 -57 56 -89 22 -32 36 -57 31 -54 -126 63 -258 119 -277 116 -39 -6 -28 -26 45 -80 163 -122 493 -287 520 -260 11 11 -10 47 -208 357 -60 94 -138 219 -174 277 -36 59 -71 108 -77 108 -8 0 -13 -13 -13 -31z"/>
 <path d="M807 3633 c33 -86 160 -236 259 -303 36 -25 48 -30 54 -19 10 15 13 9 -63 119 -72 103 -97 131 -164 181 -56 42 -97 52 -86 22z"/>
 <path d="M1030 3508 c0 -18 94 -163 144 -222 49 -59 211 -196 231 -196 8 0 15 6 15 13 0 20 -210 299 -251 334 -91 77 -139 101 -139 71z"/>
 <path d="M3185 2951 c-115 -53 -166 -165 -130 -286 59 -204 343 -224 434 -30 25 53 28 136 6 188 -50 119 -197 180 -310 128z m118 -153 c49 -26 60 -70 27 -105 -47 -51 -112 -29 -118 40 -3 32 1 39 30 57 39 24 34 23 61 8z"/>
 <path d="M2125 2933 c-42 -11 -103 -64 -124 -106 -38 -79 -20 -189 40 -244 72 -66 211 -69 281 -6 31 27 68 113 68 158 -1 76 -65 168 -137 196 -25 9 -93 10 -128 2z"/>
 <path d="M1325 2243 c-11 -2 -70 -15 -132 -28 -87 -19 -126 -33 -178 -64 -37 -23 -69 -41 -71 -41 -28 0 -879 -557 -923 -604 l-24 -26 31 0 c18 0 94 26 169 59 292 124 451 190 508 212 52 19 270 158 405 258 25 18 101 72 170 120 132 92 156 122 98 120 -18 -1 -42 -3 -53 -6z"/>
 <path d="M1442 2060 c-100 -35 -106 -38 -203 -132 -42 -40 -170 -163 -285 -273 -347 -331 -493 -476 -558 -555 -136 -164 -396 -518 -396 -540 0 -32 10 -26 183 103 84 62 206 153 272 202 269 199 303 226 365 291 448 475 479 502 542 487 13 -3 64 -30 114 -60 233 -137 438 -193 715 -193 163 0 230 8 342 42 115 34 187 9 275 -96 47 -56 243 -355 242 -370 0 -5 -34 -8 -75 -7 -41 1 -75 -2 -75 -7 0 -5 33 -36 73 -69 39 -33 126 -104 192 -158 66 -54 122 -101 125 -104 18 -21 170 -141 179 -141 6 0 11 7 11 15 0 30 -521 1061 -581 1151 -42 62 -197 214 -218 214 -6 0 -11 -16 -11 -35 0 -48 -23 -100 -52 -119 -45 -29 -169 -66 -282 -82 -254 -38 -516 17 -744 155 -161 97 -176 137 -86 231 51 54 62 81 31 79 -7 0 -50 -13 -95 -29z"/>
 <path d="M1365 1452 c-81 -43 -77 -38 -242 -323 -109 -186 -131 -233 -251 -537 -73 -182 -132 -339 -132 -347 0 -8 4 -15 9 -15 14 0 56 54 276 355 333 454 300 415 349 415 24 0 90 -17 152 -39 267 -95 499 -126 844 -111 96 4 109 2 146 -19 22 -12 73 -58 112 -101 112 -122 233 -199 232 -148 0 7 -20 72 -44 143 -165 488 -164 487 -244 573 -60 63 -70 58 -64 -36 7 -132 -15 -153 -198 -182 -175 -27 -451 5 -663 79 -143 49 -188 79 -207 136 -9 26 -6 43 15 98 14 37 25 74 25 82 0 25 -41 17 -115 -23z"/>
 </g>

</svg>